<svg xmlns="http://www.w3.org/2000/svg" width="512" height="512" viewBox="0 0 512 512" version="1.1">
	<path d="M 256.844 31.490 C 256.574 31.759, 253.687 32.378, 250.427 32.865 C 223.705 36.859, 222.697 37.112, 218.407 40.893 C 216.155 42.877, 212.780 45.722, 210.907 47.215 C 209.033 48.708, 205.335 51.746, 202.689 53.965 C 199.636 56.525, 196.877 58, 195.139 58 C 193.633 58, 191.860 58.540, 191.200 59.200 C 189.811 60.589, 189.594 64.631, 190.866 65.417 C 191.342 65.711, 190.743 68.100, 189.536 70.726 C 188.329 73.352, 185.612 79.628, 183.499 84.673 C 180.917 90.836, 178.883 94.260, 177.301 95.106 C 173.919 96.916, 173.405 100.301, 175.899 104.337 C 178.714 108.891, 178.764 116.759, 176 120.273 C 173.145 123.903, 173.508 126.197, 177.500 129.731 C 179.425 131.435, 181 133.458, 181 134.227 C 181 134.995, 181.900 137.487, 183 139.764 C 184.100 142.041, 185 144.574, 185 145.393 C 185 146.212, 185.500 147.191, 186.112 147.569 C 186.828 148.012, 186.998 149.957, 186.590 153.035 C 185.903 158.215, 187.428 161, 190.953 161 C 191.948 161, 194.032 162.688, 195.585 164.750 C 197.137 166.813, 201.915 172.922, 206.203 178.327 C 212.185 185.866, 214 188.884, 214 191.289 C 214 193.512, 214.801 195.064, 216.750 196.618 C 219.397 198.729, 219.500 199.159, 219.500 208.155 C 219.500 213.295, 219.864 218.063, 220.309 218.750 C 221.275 220.242, 225.624 220.418, 226.500 219 C 226.891 218.368, 238.767 217.998, 258.809 217.994 C 276.851 217.991, 292.050 217.558, 294.100 216.989 C 299.392 215.519, 300.841 213.285, 302.025 204.773 C 303.099 197.056, 306.155 188.031, 309.602 182.401 C 311.727 178.931, 312.531 177.711, 322.179 163.322 C 330.468 150.959, 337.299 137.410, 338.978 130 C 339.664 126.975, 340.625 123.466, 341.113 122.203 C 341.601 120.940, 342 115.223, 342 109.500 C 342 103.777, 341.601 98.060, 341.113 96.797 C 340.625 95.534, 339.669 92.025, 338.990 89 C 334.202 67.676, 312.007 44.366, 288.811 36.299 C 280.272 33.330, 258.308 30.025, 256.844 31.490 M 245.250 36.744 C 236.497 38.386, 235.428 39.428, 238.913 42.913 C 240.577 44.577, 254.954 52, 256.512 52 C 256.825 52, 256.950 48.292, 256.790 43.761 C 256.563 37.323, 256.172 35.487, 255 35.360 C 254.175 35.270, 249.787 35.893, 245.250 36.744 M 226.467 44.224 C 226.119 45.134, 226.319 49.843, 226.914 54.689 C 227.508 59.535, 227.996 66.031, 227.997 69.125 C 228.001 76.352, 228.895 80.746, 230.486 81.356 C 231.180 81.623, 233.267 80.822, 235.124 79.578 C 236.981 78.334, 242.325 74.889, 247 71.923 C 251.675 68.957, 255.831 66.073, 256.235 65.515 C 256.639 64.957, 256.969 62.925, 256.969 61 C 256.969 59.075, 256.639 57.031, 256.235 56.458 C 254.721 54.311, 240.295 48.600, 235.025 48.060 C 230.496 47.597, 229.338 47.074, 228.326 45.036 C 227.301 42.973, 226.998 42.840, 226.467 44.224 M 213 50.128 C 199.666 61.017, 199.821 60.860, 200.459 62.871 C 200.788 63.907, 203.407 66.367, 206.278 68.339 C 209.150 70.310, 214.329 73.965, 217.788 76.461 C 221.246 78.958, 224.566 81, 225.165 81 C 225.865 81, 226.041 79.656, 225.658 77.250 C 225.329 75.188, 224.586 67.253, 224.007 59.618 C 222.980 46.067, 222.607 43.999, 221.191 44.001 C 220.811 44.002, 217.125 46.759, 213 50.128 M 195.250 67.662 C 194.563 67.940, 194 68.601, 194 69.132 C 194 69.662, 193.071 71.987, 191.937 74.298 C 190.020 78.201, 183 95.008, 183 95.694 C 183 96.515, 188.385 95.843, 191.730 94.605 C 193.803 93.837, 199.325 92.208, 204 90.985 C 223.918 85.772, 224.113 85.598, 216.355 79.975 C 213.135 77.641, 207.951 73.767, 204.834 71.366 C 199.358 67.146, 197.913 66.588, 195.250 67.662 M 251.500 73.174 C 249.850 74.265, 244.917 77.485, 240.537 80.329 C 236.158 83.173, 232.558 85.936, 232.537 86.469 C 232.517 87.002, 236.100 90.301, 240.500 93.800 C 244.900 97.299, 249.474 100.989, 250.665 102 C 251.855 103.011, 253.768 104.340, 254.915 104.954 C 256.992 106.066, 257 106, 257 88.535 C 257 69.476, 257.017 69.524, 251.500 73.174 M 217.500 90.676 C 210.506 92.730, 193.232 97.846, 188.808 99.174 C 182.655 101.021, 181 103.835, 181 112.451 C 181 123.217, 180.474 123, 206.600 123 C 231.253 123, 230.669 123.223, 229.586 114.231 C 229.206 111.079, 228.495 104.964, 228.005 100.642 C 227.203 93.572, 225.149 88.745, 223.095 89.104 C 222.768 89.161, 220.250 89.869, 217.500 90.676 M 230.519 91.970 C 230.184 92.511, 230.345 94.652, 230.876 96.727 C 231.407 98.802, 232.352 104.550, 232.975 109.500 C 234.482 121.465, 235.698 122.734, 246.661 123.794 C 251.119 124.225, 255.269 124.410, 255.883 124.206 C 256.547 123.984, 257 121.294, 257 117.577 L 257 111.321 251.250 106.816 C 248.088 104.338, 242.266 99.763, 238.314 96.648 C 234.361 93.534, 230.853 91.428, 230.519 91.970 M 183.383 127.445 C 183.078 128.240, 184.263 132.852, 186.016 137.695 C 187.770 142.538, 189.421 147.233, 189.687 148.128 C 189.952 149.024, 191.144 150.199, 192.335 150.740 C 194.120 151.551, 195.326 151.090, 199.208 148.112 C 201.797 146.125, 208.885 140.718, 214.958 136.096 C 221.031 131.474, 226 127.311, 226 126.846 C 226 126.381, 216.536 126, 204.969 126 C 187.553 126, 183.842 126.248, 183.383 127.445 M 238.050 127.440 C 237.224 128.435, 237.924 130.702, 240.890 136.631 C 243.055 140.959, 247.133 149.322, 249.952 155.215 C 252.771 161.108, 255.519 166.203, 256.060 166.537 C 256.695 166.930, 256.947 160.301, 256.772 147.823 L 256.500 128.500 249.235 127.851 C 245.239 127.494, 241.334 126.958, 240.558 126.661 C 239.781 126.363, 238.653 126.713, 238.050 127.440 M 232.292 131.204 C 231.726 131.917, 230.567 134.075, 229.717 136 C 228.866 137.925, 226.385 143.387, 224.202 148.138 C 218.997 159.471, 219.290 160.954, 227.334 163.986 C 242.478 169.696, 252.505 172.894, 253.161 172.225 C 253.553 171.826, 251.710 167, 249.067 161.500 C 246.423 156, 243.327 149.475, 242.188 147 C 237.030 135.799, 233.332 129.895, 232.292 131.204 M 218.500 137.653 C 215.200 140.175, 211.068 143.423, 209.318 144.869 C 207.568 146.316, 204.080 149.073, 201.568 150.995 C 199.056 152.918, 197 154.753, 197 155.074 C 197 155.883, 206.507 158, 210.142 158 C 214.766 158, 216.876 156.334, 219.393 150.695 C 220.668 147.838, 222.628 143.475, 223.747 141 C 228.141 131.289, 227.425 130.832, 218.500 137.653 M 197.689 160.644 C 197.335 160.998, 198.273 162.735, 199.773 164.505 C 201.273 166.274, 205.200 171.156, 208.500 175.353 C 214.522 183.014, 217.721 185.124, 216.683 180.750 C 216.389 179.512, 215.842 175.946, 215.468 172.825 C 214.650 165.996, 212.112 163.153, 205.208 161.331 C 199.699 159.877, 198.560 159.773, 197.689 160.644 M 219.336 166.568 C 218.995 167.456, 219.118 172.528, 219.608 177.841 C 220.433 186.771, 220.669 187.524, 222.743 187.819 C 225.613 188.226, 251 179.192, 251 177.763 C 251 176.734, 244.028 173.628, 235 170.633 C 230.875 169.265, 225.802 167.427, 223.727 166.550 C 220.265 165.085, 219.904 165.087, 219.336 166.568 M 250.500 182.444 C 248.850 183.213, 244.575 184.841, 241 186.060 C 224.143 191.811, 220.476 194.896, 222.812 201.357 C 223.465 203.164, 224 205.538, 224 206.634 C 224 207.729, 225.276 209.849, 226.836 211.343 C 229.669 214.057, 229.688 214.060, 243.086 213.780 L 256.500 213.500 256.775 197.250 C 257.080 179.222, 257.134 179.351, 250.500 182.444 M 479.431 183.818 C 470.477 186.913, 465.025 192.679, 462.346 201.888 C 460.901 206.852, 460.914 207.777, 462.503 213.650 C 463.452 217.155, 464.628 220.270, 465.117 220.572 C 466.256 221.276, 464.842 223.883, 459.519 230.891 C 457.176 233.976, 451.376 241.787, 446.630 248.250 C 441.883 254.713, 434.255 265.063, 429.677 271.250 C 425.099 277.438, 416.528 289.025, 410.630 297 C 404.731 304.975, 396.889 315.563, 393.203 320.529 L 386.500 329.557 380 329.598 C 372.192 329.648, 366.272 332.304, 360.893 338.171 C 357.603 341.758, 355 347.506, 355 351.181 C 355 352.244, 348.185 354.317, 329.433 358.958 L 303.866 365.285 299.683 361.321 C 294.070 356.001, 287.930 353.474, 280.940 353.605 C 277.860 353.663, 274.492 354.185, 273.456 354.765 C 271.383 355.925, 270.294 355.189, 259.939 345.632 C 239.843 327.084, 233.729 321.522, 232.239 320.433 C 230.882 319.440, 230.609 317.834, 230.840 312.183 C 231.478 296.549, 221.013 285, 206.210 285 C 191.913 285, 181.063 295.773, 181.032 310 C 181.019 315.813, 184.187 324.263, 187.363 326.891 C 189.179 328.393, 188.987 329.734, 185.990 336.500 C 185.015 338.700, 182.323 345, 180.008 350.500 C 177.693 356, 175.204 361.850, 174.476 363.500 C 173.748 365.150, 171.734 369.875, 170 374 C 168.266 378.125, 166.236 382.857, 165.488 384.515 C 164.741 386.173, 163.683 388.702, 163.139 390.135 C 162.271 392.417, 161.460 392.797, 156.593 393.201 C 149.641 393.777, 142.584 398.303, 138.452 404.834 C 136.171 408.439, 135.464 410.928, 135.038 416.840 L 134.500 424.299 128 427.582 C 108.550 437.403, 45.601 468, 44.844 468 C 44.356 468, 42.279 466.923, 40.229 465.606 C 34.146 461.700, 27.125 460.531, 20.804 462.370 C 11.284 465.140, 5.132 471.312, 2.346 480.888 C 0.902 485.850, 0.914 486.778, 2.499 492.633 C 4.483 499.965, 9.151 505.976, 15.436 509.295 C 21.257 512.368, 31.878 512.295, 37.867 509.140 C 45.317 505.216, 50.515 497.820, 51.651 489.527 L 52.265 485.047 63.383 479.604 C 69.497 476.611, 90.622 466.257, 110.326 456.595 C 146.139 439.034, 146.153 439.028, 149.189 440.597 C 154.034 443.103, 161.974 443.501, 167.894 441.535 C 174.280 439.414, 178.224 436.176, 181.770 430.145 C 184.088 426.201, 184.500 424.368, 184.500 418 C 184.500 411.581, 184.095 409.811, 181.691 405.722 C 178.792 400.789, 178.780 399.750, 181.554 393.500 C 182.286 391.850, 186.987 380.825, 192.001 369 C 202.616 343.968, 204.757 339.028, 205.856 337.045 C 206.517 335.850, 212.727 333.547, 217.591 332.692 C 218.191 332.586, 223.583 337, 229.574 342.500 C 246.538 358.076, 249.199 360.515, 253.796 364.709 L 258.092 368.628 257.019 373.414 C 254.624 384.101, 260.318 395.955, 270.405 401.279 C 276.104 404.287, 286.886 404.301, 292.500 401.308 C 297.884 398.437, 302.485 393.450, 304.776 388 L 306.667 383.500 333.083 376.893 L 359.500 370.287 363.114 373.518 C 372.933 382.297, 387.920 381.671, 397.642 372.075 C 405.506 364.313, 406.820 354.440, 401.645 342 C 401.244 341.034, 405.141 334.983, 412.595 325 C 418.961 316.475, 428.955 302.975, 434.804 295 C 440.653 287.025, 445.678 280.275, 445.970 280 C 446.261 279.725, 448.052 277.250, 449.949 274.500 C 451.845 271.750, 453.663 269.275, 453.988 269 C 454.313 268.725, 458.827 262.650, 464.019 255.500 C 469.212 248.350, 473.819 242.050, 474.259 241.500 C 474.698 240.950, 476.299 238.785, 477.816 236.690 C 480.472 233.021, 480.816 232.869, 487.038 232.620 C 496.881 232.225, 504.650 227.391, 509.140 218.867 C 512.290 212.888, 512.369 202.242, 509.308 196.500 C 506.106 190.494, 501.129 186.281, 494.571 184.024 C 487.473 181.582, 485.957 181.562, 479.431 183.818 M 479.213 191.459 C 466.854 198.282, 465.467 213.570, 476.430 222.138 C 478.584 223.822, 481.038 224.535, 485.702 224.832 C 491.216 225.183, 492.549 224.903, 495.899 222.685 C 502.081 218.594, 504.303 214.095, 503.827 206.629 C 503.374 199.518, 501.230 195.955, 495.174 192.255 C 491.022 189.718, 483.083 189.322, 479.213 191.459 M 480.495 200.414 C 477.342 203.567, 476.473 207.313, 478.025 211.059 C 480.625 217.337, 488.449 219.098, 493.694 214.587 C 496.024 212.583, 496.500 211.380, 496.500 207.500 C 496.500 203.620, 496.024 202.417, 493.694 200.413 C 489.844 197.101, 483.807 197.102, 480.495 200.414 M 232.323 228.601 C 231.458 230.854, 233.695 231.947, 239.500 232.107 C 252.793 232.474, 282.181 232.077, 283.975 231.508 C 285.089 231.154, 286 229.996, 286 228.933 C 286 227.071, 285.025 227, 259.469 227 C 236.064 227, 232.865 227.189, 232.323 228.601 M 233.479 241.392 C 231.862 242.574, 231.776 243.025, 232.910 244.392 C 234.070 245.789, 237.458 246, 258.794 246 C 280.183 246, 283.577 245.788, 285.162 244.353 C 286.887 242.793, 286.891 242.638, 285.241 241.385 C 282.646 239.415, 236.174 239.421, 233.479 241.392 M 236.011 254.882 C 231.714 255.643, 230.938 258.195, 234.508 259.822 C 235.930 260.470, 237.722 261, 238.491 261 C 239.259 261, 240.689 262.357, 241.669 264.016 C 243.674 267.411, 249.119 271.332, 253.250 272.356 C 254.762 272.731, 256 273.480, 256 274.019 C 256 274.559, 257.350 275, 259 275 C 260.650 275, 262 274.567, 262 274.039 C 262 273.510, 263.913 272.570, 266.250 271.950 C 269.152 271.180, 271.927 269.329, 275 266.111 C 277.475 263.519, 280.983 260.796, 282.796 260.059 C 287.280 258.236, 286.657 255.739, 281.489 254.823 C 276.665 253.967, 240.910 254.013, 236.011 254.882 M 198.168 294.089 C 191.875 297.287, 188.483 302.882, 188.565 309.931 C 188.663 318.236, 192.963 324.131, 200.899 326.840 C 205.836 328.525, 208.021 328.295, 213.554 325.511 C 222.661 320.928, 226.225 311.227, 222.004 302.509 C 217.601 293.413, 206.922 289.640, 198.168 294.089 M 199.780 302.905 C 197.052 305.343, 196.546 306.473, 196.637 309.936 C 196.757 314.526, 198.642 317.195, 203.053 319.022 C 206.703 320.534, 209.730 319.782, 213.250 316.491 C 217.183 312.813, 217.108 306.955, 213.077 302.923 C 209.091 298.937, 204.228 298.931, 199.780 302.905 M 372.500 338.569 C 362.385 343.819, 359.145 355.585, 365.304 364.697 C 370.552 372.458, 382.225 374.517, 389.814 369.020 C 392.077 367.381, 394.619 364.703, 395.464 363.069 C 397.182 359.747, 397.499 351.442, 396.052 347.638 C 392.754 338.963, 380.690 334.318, 372.500 338.569 M 374.299 346.503 C 370.900 348.884, 369.603 354.114, 371.366 358.334 C 372.172 360.262, 373.739 362.325, 374.850 362.920 C 378.358 364.797, 383.655 364.201, 386.694 361.587 C 389.024 359.583, 389.500 358.380, 389.500 354.500 C 389.500 350.620, 389.024 349.417, 386.694 347.413 C 383.425 344.602, 377.622 344.175, 374.299 346.503 M 272.903 363.132 C 257.078 372.310, 263.648 396, 282.018 396 C 299.556 396, 305.658 372.331, 290.423 363.402 C 285.145 360.309, 277.961 360.199, 272.903 363.132 M 275.306 371.413 C 273.004 373.394, 272.500 374.636, 272.500 378.333 C 272.500 384.596, 275.711 388, 281.619 388 C 288.002 388, 291.500 384.637, 291.500 378.500 C 291.500 372.523, 287.977 369, 282 369 C 279.331 369, 277.231 369.757, 275.306 371.413 M 152.500 401.825 C 147.724 404.085, 145.600 406.320, 143.538 411.254 C 140.725 417.988, 142.292 425.377, 147.635 430.565 C 155.871 438.563, 168.036 436.957, 174.813 426.976 C 176.823 424.016, 177.120 422.535, 176.818 416.995 C 176.571 412.487, 175.854 409.678, 174.481 407.850 C 169.200 400.814, 159.978 398.286, 152.500 401.825 M 154.856 409.516 C 153.402 410.306, 151.730 412.336, 151.141 414.026 C 148.887 420.492, 152.532 426.563, 159.330 427.666 C 162.513 428.183, 163.370 427.830, 166.473 424.727 C 170.193 421.007, 170.921 417.670, 168.883 413.684 C 166.142 408.325, 160.265 406.578, 154.856 409.516 M 19.213 470.459 C 2.144 479.882, 7.854 504, 27.154 504 C 33.507 504, 38.525 501.123, 42.011 495.482 C 45.009 490.631, 44.559 480.807, 41.138 476.430 C 35.916 469.749, 25.592 466.937, 19.213 470.459 M 21.750 478.080 C 19.478 479.403, 17 484.237, 17 487.345 C 17 488.689, 18.306 491.186, 19.901 492.894 C 22.301 495.463, 23.567 496, 27.227 496 C 33.300 496, 36.500 492.664, 36.500 486.333 C 36.500 482.636, 35.996 481.394, 33.694 479.413 C 30.696 476.834, 24.984 476.197, 21.750 478.080" stroke="none" fill="black" fill-rule="evenodd"/>
</svg>